<svg width="166" height="166" viewBox="0 0 166 166" fill="none" xmlns="http://www.w3.org/2000/svg">
<path d="M130.034 68.5442C122.218 68.5442 115.232 72.3484 110.875 78.1584C106.517 72.3484 99.5312 68.5442 91.7153 68.5442C78.5045 68.5442 67.7837 79.3342 67.7837 92.6142C67.7837 97.7325 68.6137 102.505 69.997 106.863C76.7753 128.373 97.802 141.308 108.177 144.835C109.63 145.319 112.05 145.319 113.503 144.835C123.878 141.308 144.905 128.443 151.683 106.863C153.135 102.436 153.896 97.7325 153.896 92.6142C153.965 79.3342 143.244 68.5442 130.034 68.5442Z" fill="#71B6F2"/>
<path d="M143.521 57.685C143.521 59.2758 141.93 60.3133 140.408 59.8983C131.071 57.4775 120.834 59.4833 113.087 65.0167C111.566 66.1233 109.491 66.1233 108.038 65.0167C102.574 61.005 95.9342 58.7917 88.9483 58.7917C71.1033 58.7917 56.5783 73.3858 56.5783 91.3692C56.5783 110.874 65.9158 125.468 75.3225 135.221C75.8067 135.705 75.3917 136.535 74.7692 136.258C55.8867 129.826 13.8333 103.127 13.8333 57.685C13.8333 37.6267 29.9492 21.4417 49.8692 21.4417C61.6967 21.4417 72.1408 27.1133 78.7117 35.8975C85.3517 27.1133 95.7958 21.4417 107.554 21.4417C127.405 21.4417 143.521 37.6267 143.521 57.685Z" fill="#71B6F2"/>
</svg>
