<svg width="504" height="254" viewBox="0 0 504 254" fill="none" xmlns="http://www.w3.org/2000/svg">
<path d="M23.8382 28.8C26.5262 28.8 28.5742 28.192 29.9822 26.976C31.4542 25.696 32.1902 23.776 32.1902 21.216C32.1902 18.784 31.4222 16.928 29.8862 15.648C28.4142 14.304 26.2382 13.632 23.3582 13.632C22.3342 13.632 21.4702 13.664 20.7662 13.728C20.1262 13.728 19.4542 13.792 18.7502 13.92V28.8H23.8382ZM18.8462 59.616C18.1422 59.808 17.0222 60 15.4862 60.192C14.0142 60.384 12.5422 60.48 11.0702 60.48C9.59824 60.48 8.28624 60.352 7.13424 60.096C6.04624 59.904 5.11824 59.52 4.35024 58.944C3.58224 58.368 3.00624 57.568 2.62224 56.544C2.23824 55.52 2.04624 54.176 2.04624 52.512V7.296C2.04624 5.952 2.39824 4.928 3.10224 4.224C3.87024 3.456 4.89424 2.848 6.17424 2.4C8.35024 1.632 10.8142 1.088 13.5662 0.767996C16.3822 0.383997 19.1982 0.191998 22.0142 0.191998C30.8462 0.191998 37.5982 2.08 42.2702 5.856C46.9422 9.632 49.2782 14.752 49.2782 21.216C49.2782 24.352 48.7662 27.2 47.7422 29.76C46.7822 32.256 45.3102 34.432 43.3262 36.288C41.4062 38.08 38.9422 39.488 35.9342 40.512C32.9902 41.472 29.5662 41.952 25.6622 41.952H18.8462V59.616ZM69.7315 41.184V59.616C69.0275 59.808 67.9075 60 66.3715 60.192C64.8995 60.384 63.4275 60.48 61.9555 60.48C60.4835 60.48 59.1715 60.352 58.0195 60.096C56.9315 59.904 56.0035 59.52 55.2355 58.944C54.5315 58.368 53.9875 57.568 53.6035 56.544C53.2195 55.52 53.0275 54.176 53.0275 52.512V7.296C53.0275 5.952 53.3795 4.928 54.0835 4.224C54.8515 3.456 55.8755 2.848 57.1555 2.4C59.3315 1.632 61.8595 1.088 64.7395 0.767996C67.6195 0.383997 70.6915 0.191998 73.9555 0.191998C82.7875 0.191998 89.4435 2.048 93.9235 5.76C98.4035 9.472 100.643 14.496 100.643 20.832C100.643 24.8 99.6195 28.192 97.5715 31.008C95.5235 33.824 93.0915 36 90.2755 37.536C92.5795 40.672 94.8515 43.616 97.0915 46.368C99.3315 49.12 101.091 51.616 102.371 53.856C101.731 56.096 100.547 57.824 98.8195 59.04C97.1555 60.192 95.2675 60.768 93.1555 60.768C91.7475 60.768 90.5315 60.608 89.5075 60.288C88.4835 59.968 87.5875 59.52 86.8195 58.944C86.0515 58.368 85.3475 57.664 84.7075 56.832C84.0675 56 83.4595 55.104 82.8835 54.144L74.8195 41.184H69.7315ZM75.7795 28.416C78.2115 28.416 80.1315 27.808 81.5395 26.592C82.9475 25.312 83.6515 23.456 83.6515 21.024C83.6515 18.592 82.8515 16.768 81.2515 15.552C79.7155 14.272 77.2515 13.632 73.8595 13.632C72.8995 13.632 72.1315 13.664 71.5555 13.728C70.9795 13.792 70.3395 13.888 69.6355 14.016V28.416H75.7795ZM119.861 3.552C120.949 2.912 122.581 2.304 124.757 1.72799C126.997 1.15199 129.237 0.863995 131.477 0.863995C134.677 0.863995 137.493 1.344 139.925 2.304C142.421 3.2 144.021 4.64 144.725 6.62399C145.877 9.952 147.125 13.824 148.469 18.24C149.813 22.656 151.157 27.232 152.501 31.968C153.845 36.64 155.157 41.28 156.437 45.888C157.717 50.432 158.837 54.464 159.797 57.984C159.029 58.88 157.877 59.584 156.341 60.096C154.805 60.672 152.981 60.96 150.869 60.96C149.333 60.96 148.021 60.832 146.933 60.576C145.909 60.32 145.045 59.936 144.341 59.424C143.701 58.912 143.157 58.24 142.709 57.408C142.325 56.576 141.973 55.616 141.653 54.528L139.925 47.904H122.549C122.037 49.824 121.525 51.808 121.013 53.856C120.501 55.904 119.989 57.888 119.477 59.808C118.581 60.128 117.621 60.384 116.597 60.576C115.637 60.832 114.453 60.96 113.045 60.96C109.781 60.96 107.349 60.416 105.749 59.328C104.213 58.176 103.445 56.608 103.445 54.624C103.445 53.728 103.573 52.832 103.829 51.936C104.085 51.04 104.373 49.984 104.693 48.768C105.141 47.04 105.749 44.896 106.517 42.336C107.349 39.776 108.245 37.024 109.205 34.08C110.165 31.072 111.189 28 112.277 24.864C113.365 21.728 114.389 18.784 115.349 16.032C116.309 13.216 117.173 10.72 117.941 8.544C118.773 6.368 119.413 4.704 119.861 3.552ZM131.381 15.936C130.485 18.624 129.461 21.632 128.309 24.96C127.221 28.224 126.229 31.552 125.333 34.944H137.237C136.341 31.488 135.413 28.128 134.453 24.864C133.557 21.536 132.725 18.56 131.957 15.936H131.381ZM191.592 13.536C186.664 13.536 182.888 15.04 180.264 18.048C177.64 21.056 176.328 25.312 176.328 30.816C176.328 36.384 177.768 40.672 180.648 43.68C183.592 46.688 187.528 48.192 192.456 48.192C195.08 48.192 197.288 47.84 199.08 47.136C200.936 46.432 202.696 45.632 204.36 44.736C205.448 45.632 206.28 46.72 206.856 48C207.496 49.216 207.816 50.656 207.816 52.32C207.816 54.944 206.344 57.184 203.4 59.04C200.52 60.832 196.104 61.728 190.152 61.728C185.864 61.728 181.832 61.12 178.056 59.904C174.28 58.688 170.984 56.832 168.168 54.336C165.352 51.776 163.112 48.576 161.448 44.736C159.848 40.832 159.048 36.192 159.048 30.816C159.048 25.824 159.816 21.44 161.352 17.664C162.952 13.824 165.096 10.592 167.784 7.96799C170.536 5.344 173.736 3.36 177.384 2.016C181.032 0.671999 184.936 0 189.096 0C194.984 0 199.528 0.959999 202.728 2.88C205.992 4.8 207.624 7.264 207.624 10.272C207.624 11.936 207.208 13.376 206.375 14.592C205.544 15.808 204.584 16.768 203.496 17.472C201.832 16.384 200.04 15.456 198.12 14.688C196.264 13.92 194.088 13.536 191.592 13.536ZM210.596 15.264C210.148 14.56 209.732 13.6 209.348 12.384C208.964 11.168 208.772 9.888 208.772 8.544C208.772 6.048 209.316 4.256 210.404 3.168C211.556 2.08 213.028 1.536 214.82 1.536H256.676C257.124 2.24 257.54 3.2 257.924 4.41599C258.308 5.632 258.5 6.912 258.5 8.256C258.5 10.752 257.924 12.544 256.772 13.632C255.684 14.72 254.244 15.264 252.452 15.264H241.796V59.616C241.092 59.808 239.972 60 238.436 60.192C236.964 60.384 235.492 60.48 234.02 60.48C232.548 60.48 231.236 60.352 230.084 60.096C228.996 59.904 228.068 59.52 227.3 58.944C226.532 58.368 225.956 57.568 225.572 56.544C225.188 55.52 224.996 54.176 224.996 52.512V15.264H210.596ZM278.627 59.616C277.923 59.808 276.803 60 275.267 60.192C273.795 60.384 272.323 60.48 270.851 60.48C269.379 60.48 268.067 60.352 266.915 60.096C265.827 59.904 264.899 59.52 264.131 58.944C263.363 58.368 262.787 57.568 262.403 56.544C262.019 55.52 261.827 54.176 261.827 52.512V1.824C262.531 1.696 263.651 1.536 265.187 1.344C266.723 1.088 268.195 0.959999 269.603 0.959999C271.075 0.959999 272.355 1.088 273.443 1.344C274.595 1.536 275.555 1.92 276.323 2.496C277.091 3.072 277.667 3.872 278.051 4.896C278.435 5.92 278.627 7.264 278.627 8.928V59.616ZM315.942 13.536C311.014 13.536 307.238 15.04 304.614 18.048C301.99 21.056 300.678 25.312 300.678 30.816C300.678 36.384 302.118 40.672 304.998 43.68C307.942 46.688 311.878 48.192 316.806 48.192C319.43 48.192 321.638 47.84 323.43 47.136C325.286 46.432 327.046 45.632 328.71 44.736C329.798 45.632 330.63 46.72 331.206 48C331.846 49.216 332.166 50.656 332.166 52.32C332.166 54.944 330.694 57.184 327.75 59.04C324.87 60.832 320.454 61.728 314.502 61.728C310.214 61.728 306.182 61.12 302.406 59.904C298.63 58.688 295.334 56.832 292.518 54.336C289.702 51.776 287.462 48.576 285.798 44.736C284.198 40.832 283.398 36.192 283.398 30.816C283.398 25.824 284.166 21.44 285.702 17.664C287.302 13.824 289.446 10.592 292.134 7.96799C294.886 5.344 298.086 3.36 301.734 2.016C305.382 0.671999 309.286 0 313.446 0C319.334 0 323.878 0.959999 327.078 2.88C330.342 4.8 331.974 7.264 331.974 10.272C331.974 11.936 331.558 13.376 330.726 14.592C329.894 15.808 328.934 16.768 327.846 17.472C326.182 16.384 324.39 15.456 322.47 14.688C320.614 13.92 318.438 13.536 315.942 13.536ZM336.321 10.752C336.321 8 337.121 5.824 338.721 4.224C340.321 2.624 342.497 1.824 345.249 1.824H376.929C377.377 2.528 377.761 3.456 378.081 4.608C378.465 5.76 378.657 6.976 378.657 8.256C378.657 10.688 378.113 12.416 377.025 13.44C376.001 14.464 374.625 14.976 372.897 14.976H352.641V23.904H374.241C374.689 24.608 375.073 25.536 375.393 26.688C375.777 27.776 375.969 28.96 375.969 30.24C375.969 32.672 375.457 34.4 374.433 35.424C373.409 36.448 372.033 36.96 370.305 36.96H352.641V47.04H377.313C377.761 47.744 378.145 48.672 378.465 49.824C378.849 50.976 379.041 52.192 379.041 53.472C379.041 55.904 378.497 57.664 377.409 58.752C376.385 59.776 375.009 60.288 373.281 60.288H345.249C342.497 60.288 340.321 59.488 338.721 57.888C337.121 56.288 336.321 54.112 336.321 51.36V10.752ZM395.654 30.816C395.654 25.824 396.422 21.408 397.958 17.568C399.558 13.728 401.702 10.528 404.39 7.96799C407.142 5.344 410.342 3.36 413.99 2.016C417.702 0.671999 421.702 0 425.99 0C430.278 0 434.246 0.671999 437.894 2.016C441.606 3.36 444.838 5.344 447.59 7.96799C450.342 10.528 452.486 13.728 454.022 17.568C455.622 21.408 456.422 25.824 456.422 30.816C456.422 35.808 455.654 40.256 454.118 44.16C452.582 48 450.438 51.232 447.686 53.856C444.998 56.416 441.798 58.368 438.086 59.712C434.374 61.056 430.342 61.728 425.99 61.728C421.638 61.728 417.606 61.056 413.894 59.712C410.182 58.304 406.982 56.288 404.294 53.664C401.606 51.04 399.494 47.808 397.958 43.968C396.422 40.128 395.654 35.744 395.654 30.816ZM412.934 30.816C412.934 36.64 414.118 40.992 416.486 43.872C418.854 46.752 422.022 48.192 425.99 48.192C430.022 48.192 433.222 46.752 435.59 43.872C437.958 40.992 439.142 36.64 439.142 30.816C439.142 25.056 437.958 20.736 435.59 17.856C433.286 14.976 430.118 13.536 426.086 13.536C422.118 13.536 418.918 14.976 416.486 17.856C414.118 20.672 412.934 24.992 412.934 30.816ZM502.13 1.824C502.578 2.528 502.962 3.488 503.282 4.704C503.666 5.856 503.858 7.072 503.858 8.352C503.858 10.848 503.314 12.64 502.226 13.728C501.202 14.752 499.794 15.264 498.002 15.264H477.842V26.112H498.866C499.378 26.816 499.794 27.744 500.114 28.896C500.498 30.048 500.69 31.264 500.69 32.544C500.69 34.976 500.146 36.736 499.058 37.824C498.034 38.848 496.626 39.36 494.834 39.36H478.034V59.616C477.33 59.808 476.21 60 474.674 60.192C473.202 60.384 471.73 60.48 470.258 60.48C468.786 60.48 467.474 60.352 466.322 60.096C465.234 59.904 464.306 59.52 463.538 58.944C462.77 58.368 462.194 57.568 461.81 56.544C461.426 55.52 461.234 54.176 461.234 52.512V10.752C461.234 8 462.034 5.824 463.634 4.224C465.234 2.624 467.41 1.824 470.162 1.824H502.13Z" fill="#33BAE9"/>
<path d="M17.7119 155.616C17.0079 155.808 15.8879 156 14.3519 156.192C12.8799 156.384 11.4079 156.48 9.93588 156.48C8.46388 156.48 7.15188 156.352 5.99988 156.096C4.91188 155.904 3.98388 155.52 3.21588 154.944C2.44788 154.368 1.87188 153.568 1.48788 152.544C1.10388 151.52 0.911875 150.176 0.911875 148.512V97.824C1.61588 97.696 2.73588 97.536 4.27188 97.344C5.80788 97.088 7.27988 96.96 8.68788 96.96C10.1599 96.96 11.4399 97.088 12.5279 97.344C13.6799 97.536 14.6399 97.92 15.4079 98.496C16.1759 99.072 16.7519 99.872 17.1359 100.896C17.5199 101.92 17.7119 103.264 17.7119 104.928V155.616ZM78.0659 153.984C77.1699 154.88 75.8579 155.552 74.1299 156C72.4659 156.512 70.4499 156.768 68.0819 156.768C65.7139 156.768 63.4739 156.416 61.3619 155.712C59.2499 155.008 57.5219 153.312 56.1779 150.624L46.6739 131.232C45.7139 129.248 44.8499 127.392 44.0819 125.664C43.3139 123.872 42.4819 121.824 41.5859 119.52L41.0099 119.616C41.2659 123.072 41.3939 126.592 41.3939 130.176C41.4579 133.76 41.4899 137.28 41.4899 140.736V155.616C40.7859 155.808 39.6979 156 38.2259 156.192C36.8179 156.384 35.4099 156.48 34.0019 156.48C32.5939 156.48 31.3459 156.384 30.2579 156.192C29.1699 156 28.2739 155.616 27.5699 155.04C26.8659 154.464 26.3219 153.696 25.9379 152.736C25.5539 151.712 25.3619 150.4 25.3619 148.8V100.8C26.2579 99.52 27.6339 98.56 29.4899 97.92C31.3459 97.28 33.3299 96.96 35.4419 96.96C37.8099 96.96 40.0499 97.344 42.1619 98.112C44.3379 98.816 46.0659 100.48 47.3459 103.104L56.9459 122.496C57.9059 124.48 58.7699 126.368 59.5379 128.16C60.3059 129.888 61.1379 131.904 62.0339 134.208L62.5139 134.112C62.2579 130.656 62.0979 127.2 62.0339 123.744C61.9699 120.288 61.9379 116.832 61.9379 113.376V97.824C62.6419 97.632 63.6979 97.44 65.1059 97.248C66.5779 97.056 68.0179 96.96 69.4259 96.96C72.2419 96.96 74.3859 97.472 75.8579 98.496C77.3299 99.456 78.0659 101.504 78.0659 104.64V153.984ZM138.422 153.984C137.526 154.88 136.214 155.552 134.486 156C132.822 156.512 130.806 156.768 128.438 156.768C126.07 156.768 123.83 156.416 121.718 155.712C119.606 155.008 117.878 153.312 116.534 150.624L107.03 131.232C106.07 129.248 105.206 127.392 104.438 125.664C103.67 123.872 102.838 121.824 101.942 119.52L101.366 119.616C101.622 123.072 101.75 126.592 101.75 130.176C101.814 133.76 101.846 137.28 101.846 140.736V155.616C101.142 155.808 100.054 156 98.5821 156.192C97.1741 156.384 95.7661 156.48 94.3581 156.48C92.9501 156.48 91.7021 156.384 90.6141 156.192C89.5261 156 88.6301 155.616 87.9261 155.04C87.2221 154.464 86.6781 153.696 86.2941 152.736C85.9101 151.712 85.7181 150.4 85.7181 148.8V100.8C86.6141 99.52 87.9901 98.56 89.8461 97.92C91.7021 97.28 93.6861 96.96 95.7981 96.96C98.1661 96.96 100.406 97.344 102.518 98.112C104.694 98.816 106.422 100.48 107.702 103.104L117.302 122.496C118.262 124.48 119.126 126.368 119.894 128.16C120.662 129.888 121.494 131.904 122.39 134.208L122.87 134.112C122.614 130.656 122.454 127.2 122.39 123.744C122.326 120.288 122.294 116.832 122.294 113.376V97.824C122.998 97.632 124.054 97.44 125.462 97.248C126.934 97.056 128.374 96.96 129.782 96.96C132.598 96.96 134.742 97.472 136.214 98.496C137.686 99.456 138.422 101.504 138.422 104.64V153.984ZM143.194 126.816C143.194 121.824 143.962 117.408 145.498 113.568C147.098 109.728 149.242 106.528 151.93 103.968C154.682 101.344 157.882 99.36 161.53 98.016C165.242 96.672 169.242 96 173.53 96C177.818 96 181.786 96.672 185.434 98.016C189.146 99.36 192.378 101.344 195.13 103.968C197.882 106.528 200.026 109.728 201.562 113.568C203.162 117.408 203.962 121.824 203.962 126.816C203.962 131.808 203.194 136.256 201.658 140.16C200.122 144 197.978 147.232 195.226 149.856C192.538 152.416 189.338 154.368 185.626 155.712C181.914 157.056 177.882 157.728 173.53 157.728C169.178 157.728 165.146 157.056 161.434 155.712C157.722 154.304 154.522 152.288 151.834 149.664C149.146 147.04 147.034 143.808 145.498 139.968C143.962 136.128 143.194 131.744 143.194 126.816ZM160.474 126.816C160.474 132.64 161.658 136.992 164.026 139.872C166.394 142.752 169.562 144.192 173.53 144.192C177.562 144.192 180.762 142.752 183.13 139.872C185.498 136.992 186.682 132.64 186.682 126.816C186.682 121.056 185.498 116.736 183.13 113.856C180.826 110.976 177.658 109.536 173.626 109.536C169.658 109.536 166.458 110.976 164.026 113.856C161.658 116.672 160.474 120.992 160.474 126.816ZM242.216 154.08C241.32 154.848 239.912 155.52 237.992 156.096C236.136 156.672 234.088 156.96 231.848 156.96C229.16 156.96 226.856 156.576 224.936 155.808C223.016 154.976 221.704 153.856 221 152.448C220.296 150.976 219.432 149.088 218.408 146.784C217.384 144.416 216.296 141.792 215.144 138.912C214.056 136.032 212.904 132.992 211.688 129.792C210.536 126.528 209.416 123.232 208.328 119.904C207.24 116.576 206.216 113.312 205.256 110.112C204.296 106.912 203.464 103.904 202.76 101.088C203.656 100.192 204.936 99.392 206.6 98.688C208.328 97.92 210.152 97.536 212.072 97.536C214.44 97.536 216.36 98.048 217.832 99.072C219.368 100.032 220.488 101.856 221.192 104.544C222.92 110.816 224.648 116.832 226.376 122.592C228.168 128.288 230.024 134.24 231.944 140.448H232.52C234.248 134.432 236.008 127.872 237.8 120.768C239.656 113.664 241.416 106.592 243.08 99.552C244.232 98.976 245.448 98.496 246.728 98.112C248.072 97.728 249.576 97.536 251.24 97.536C253.608 97.536 255.624 98.08 257.288 99.168C258.952 100.192 259.784 101.92 259.784 104.352C259.784 105.76 259.432 107.808 258.728 110.496C258.088 113.184 257.224 116.224 256.136 119.616C255.112 122.944 253.928 126.432 252.584 130.08C251.304 133.728 249.992 137.184 248.648 140.448C247.368 143.648 246.152 146.496 245 148.992C243.848 151.424 242.92 153.12 242.216 154.08ZM272.89 99.552C273.978 98.912 275.61 98.304 277.786 97.728C280.026 97.152 282.266 96.864 284.506 96.864C287.706 96.864 290.522 97.344 292.954 98.304C295.45 99.2 297.05 100.64 297.754 102.624C298.906 105.952 300.154 109.824 301.498 114.24C302.842 118.656 304.186 123.232 305.53 127.968C306.874 132.64 308.186 137.28 309.466 141.888C310.746 146.432 311.866 150.464 312.826 153.984C312.058 154.88 310.906 155.584 309.37 156.096C307.834 156.672 306.01 156.96 303.898 156.96C302.362 156.96 301.05 156.832 299.962 156.576C298.938 156.32 298.074 155.936 297.37 155.424C296.73 154.912 296.186 154.24 295.738 153.408C295.354 152.576 295.002 151.616 294.682 150.528L292.954 143.904H275.578C275.066 145.824 274.554 147.808 274.042 149.856C273.53 151.904 273.018 153.888 272.506 155.808C271.61 156.128 270.65 156.384 269.626 156.576C268.666 156.832 267.482 156.96 266.074 156.96C262.81 156.96 260.378 156.416 258.778 155.328C257.242 154.176 256.474 152.608 256.474 150.624C256.474 149.728 256.602 148.832 256.858 147.936C257.114 147.04 257.402 145.984 257.722 144.768C258.17 143.04 258.778 140.896 259.546 138.336C260.378 135.776 261.274 133.024 262.234 130.08C263.194 127.072 264.218 124 265.306 120.864C266.394 117.728 267.418 114.784 268.378 112.032C269.338 109.216 270.202 106.72 270.97 104.544C271.802 102.368 272.442 100.704 272.89 99.552ZM284.41 111.936C283.514 114.624 282.49 117.632 281.338 120.96C280.25 124.224 279.258 127.552 278.362 130.944H290.266C289.37 127.488 288.442 124.128 287.482 120.864C286.586 117.536 285.754 114.56 284.986 111.936H284.41ZM309.83 111.264C309.382 110.56 308.966 109.6 308.582 108.384C308.198 107.168 308.006 105.888 308.006 104.544C308.006 102.048 308.55 100.256 309.638 99.168C310.79 98.08 312.262 97.536 314.054 97.536H355.91C356.358 98.24 356.774 99.2 357.158 100.416C357.542 101.632 357.734 102.912 357.734 104.256C357.734 106.752 357.158 108.544 356.006 109.632C354.918 110.72 353.478 111.264 351.686 111.264H341.03V155.616C340.326 155.808 339.206 156 337.67 156.192C336.198 156.384 334.726 156.48 333.254 156.48C331.782 156.48 330.47 156.352 329.318 156.096C328.23 155.904 327.302 155.52 326.534 154.944C325.766 154.368 325.19 153.568 324.806 152.544C324.422 151.52 324.23 150.176 324.23 148.512V111.264H309.83ZM377.862 155.616C377.158 155.808 376.038 156 374.502 156.192C373.03 156.384 371.558 156.48 370.086 156.48C368.614 156.48 367.302 156.352 366.15 156.096C365.062 155.904 364.134 155.52 363.366 154.944C362.598 154.368 362.022 153.568 361.638 152.544C361.254 151.52 361.062 150.176 361.062 148.512V97.824C361.766 97.696 362.886 97.536 364.422 97.344C365.958 97.088 367.43 96.96 368.838 96.96C370.31 96.96 371.59 97.088 372.678 97.344C373.83 97.536 374.79 97.92 375.558 98.496C376.326 99.072 376.902 99.872 377.286 100.896C377.67 101.92 377.862 103.264 377.862 104.928V155.616ZM382.632 126.816C382.632 121.824 383.4 117.408 384.936 113.568C386.536 109.728 388.68 106.528 391.368 103.968C394.12 101.344 397.32 99.36 400.968 98.016C404.68 96.672 408.68 96 412.968 96C417.256 96 421.224 96.672 424.872 98.016C428.584 99.36 431.816 101.344 434.568 103.968C437.32 106.528 439.464 109.728 441 113.568C442.6 117.408 443.4 121.824 443.4 126.816C443.4 131.808 442.632 136.256 441.096 140.16C439.56 144 437.416 147.232 434.664 149.856C431.976 152.416 428.776 154.368 425.064 155.712C421.352 157.056 417.32 157.728 412.968 157.728C408.616 157.728 404.584 157.056 400.872 155.712C397.16 154.304 393.96 152.288 391.272 149.664C388.584 147.04 386.472 143.808 384.936 139.968C383.4 136.128 382.632 131.744 382.632 126.816ZM399.912 126.816C399.912 132.64 401.096 136.992 403.464 139.872C405.832 142.752 409 144.192 412.968 144.192C417 144.192 420.2 142.752 422.568 139.872C424.936 136.992 426.12 132.64 426.12 126.816C426.12 121.056 424.936 116.736 422.568 113.856C420.264 110.976 417.096 109.536 413.064 109.536C409.096 109.536 405.896 110.976 403.464 113.856C401.096 116.672 399.912 120.992 399.912 126.816ZM500.916 153.984C500.02 154.88 498.708 155.552 496.98 156C495.316 156.512 493.3 156.768 490.932 156.768C488.564 156.768 486.324 156.416 484.212 155.712C482.1 155.008 480.372 153.312 479.028 150.624L469.524 131.232C468.564 129.248 467.7 127.392 466.932 125.664C466.164 123.872 465.332 121.824 464.436 119.52L463.86 119.616C464.116 123.072 464.244 126.592 464.244 130.176C464.308 133.76 464.34 137.28 464.34 140.736V155.616C463.636 155.808 462.548 156 461.076 156.192C459.668 156.384 458.26 156.48 456.852 156.48C455.444 156.48 454.196 156.384 453.108 156.192C452.02 156 451.124 155.616 450.42 155.04C449.716 154.464 449.172 153.696 448.788 152.736C448.404 151.712 448.212 150.4 448.212 148.8V100.8C449.108 99.52 450.484 98.56 452.34 97.92C454.196 97.28 456.18 96.96 458.292 96.96C460.66 96.96 462.9 97.344 465.012 98.112C467.188 98.816 468.916 100.48 470.196 103.104L479.796 122.496C480.756 124.48 481.62 126.368 482.388 128.16C483.156 129.888 483.988 131.904 484.884 134.208L485.364 134.112C485.108 130.656 484.948 127.2 484.884 123.744C484.82 120.288 484.788 116.832 484.788 113.376V97.824C485.492 97.632 486.548 97.44 487.956 97.248C489.428 97.056 490.868 96.96 492.276 96.96C495.092 96.96 497.236 97.472 498.708 98.496C500.18 99.456 500.916 101.504 500.916 104.64V153.984Z" fill="#F5A73A"/>
<path d="M10.09 202.752C10.09 200 10.89 197.824 12.49 196.224C14.09 194.624 16.266 193.824 19.018 193.824H50.698C51.146 194.528 51.53 195.456 51.85 196.608C52.234 197.76 52.426 198.976 52.426 200.256C52.426 202.688 51.882 204.416 50.794 205.44C49.77 206.464 48.394 206.976 46.666 206.976H26.41V215.904H48.01C48.458 216.608 48.842 217.536 49.162 218.688C49.546 219.776 49.738 220.96 49.738 222.24C49.738 224.672 49.226 226.4 48.202 227.424C47.178 228.448 45.802 228.96 44.074 228.96H26.41V239.04H51.082C51.53 239.744 51.914 240.672 52.234 241.824C52.618 242.976 52.81 244.192 52.81 245.472C52.81 247.904 52.266 249.664 51.178 250.752C50.154 251.776 48.778 252.288 47.05 252.288H19.018C16.266 252.288 14.09 251.488 12.49 249.888C10.89 248.288 10.09 246.112 10.09 243.36V202.752ZM54.7893 200.928C55.1093 200.032 55.5573 199.136 56.1333 198.24C56.7093 197.344 57.4133 196.544 58.2453 195.84C59.1413 195.072 60.1653 194.464 61.3173 194.016C62.4693 193.504 63.7493 193.248 65.1573 193.248C67.0133 193.248 68.6453 193.728 70.0533 194.688C71.4613 195.584 72.9013 197.152 74.3733 199.392L81.8613 210.816L92.9013 194.496C93.4133 194.24 94.1173 194.016 95.0133 193.824C95.9733 193.568 96.9013 193.44 97.7973 193.44C100.741 193.44 103.045 194.144 104.709 195.552C106.373 196.96 107.205 198.688 107.205 200.736C107.205 202.528 106.725 204.128 105.765 205.536C104.869 206.944 103.621 208.64 102.021 210.624L92.1333 222.72L107.781 245.088C107.269 247.456 106.149 249.344 104.421 250.752C102.757 252.096 100.485 252.768 97.6053 252.768C95.7493 252.768 94.1493 252.32 92.8053 251.424C91.4613 250.464 90.0853 248.864 88.6773 246.624L80.9013 234.336L68.8053 252.576C68.2933 252.64 67.8133 252.672 67.3653 252.672C66.9173 252.736 66.4693 252.768 66.0213 252.768C62.3733 252.768 59.6853 252.032 57.9573 250.56C56.2293 249.088 55.3653 247.264 55.3653 245.088C55.3653 243.232 55.7493 241.632 56.5173 240.288C57.3493 238.88 58.5013 237.248 59.9733 235.392L70.0533 222.432L54.7893 200.928ZM133.47 220.8C136.158 220.8 138.206 220.192 139.614 218.976C141.086 217.696 141.822 215.776 141.822 213.216C141.822 210.784 141.054 208.928 139.518 207.648C138.046 206.304 135.87 205.632 132.99 205.632C131.966 205.632 131.102 205.664 130.398 205.728C129.758 205.728 129.086 205.792 128.382 205.92V220.8H133.47ZM128.478 251.616C127.774 251.808 126.654 252 125.118 252.192C123.646 252.384 122.174 252.48 120.702 252.48C119.23 252.48 117.918 252.352 116.766 252.096C115.678 251.904 114.75 251.52 113.982 250.944C113.214 250.368 112.638 249.568 112.254 248.544C111.87 247.52 111.678 246.176 111.678 244.512V199.296C111.678 197.952 112.03 196.928 112.734 196.224C113.502 195.456 114.526 194.848 115.806 194.4C117.982 193.632 120.446 193.088 123.198 192.768C126.014 192.384 128.83 192.192 131.646 192.192C140.478 192.192 147.23 194.08 151.902 197.856C156.574 201.632 158.91 206.752 158.91 213.216C158.91 216.352 158.398 219.2 157.374 221.76C156.414 224.256 154.942 226.432 152.958 228.288C151.038 230.08 148.574 231.488 145.566 232.512C142.622 233.472 139.198 233.952 135.294 233.952H128.478V251.616ZM162.659 202.752C162.659 200 163.459 197.824 165.059 196.224C166.659 194.624 168.835 193.824 171.587 193.824H203.267C203.715 194.528 204.099 195.456 204.419 196.608C204.803 197.76 204.995 198.976 204.995 200.256C204.995 202.688 204.451 204.416 203.363 205.44C202.339 206.464 200.963 206.976 199.235 206.976H178.979V215.904H200.579C201.027 216.608 201.411 217.536 201.731 218.688C202.115 219.776 202.307 220.96 202.307 222.24C202.307 224.672 201.795 226.4 200.771 227.424C199.747 228.448 198.371 228.96 196.643 228.96H178.979V239.04H203.651C204.099 239.744 204.483 240.672 204.803 241.824C205.187 242.976 205.379 244.192 205.379 245.472C205.379 247.904 204.835 249.664 203.747 250.752C202.723 251.776 201.347 252.288 199.619 252.288H171.587C168.835 252.288 166.659 251.488 165.059 249.888C163.459 248.288 162.659 246.112 162.659 243.36V202.752ZM227.157 233.184V251.616C226.453 251.808 225.333 252 223.797 252.192C222.325 252.384 220.853 252.48 219.381 252.48C217.909 252.48 216.597 252.352 215.445 252.096C214.357 251.904 213.429 251.52 212.661 250.944C211.957 250.368 211.413 249.568 211.029 248.544C210.645 247.52 210.453 246.176 210.453 244.512V199.296C210.453 197.952 210.805 196.928 211.509 196.224C212.277 195.456 213.301 194.848 214.581 194.4C216.757 193.632 219.285 193.088 222.165 192.768C225.045 192.384 228.117 192.192 231.381 192.192C240.213 192.192 246.869 194.048 251.349 197.76C255.829 201.472 258.069 206.496 258.069 212.832C258.069 216.8 257.045 220.192 254.997 223.008C252.949 225.824 250.517 228 247.701 229.536C250.005 232.672 252.277 235.616 254.517 238.368C256.757 241.12 258.517 243.616 259.797 245.856C259.157 248.096 257.973 249.824 256.245 251.04C254.581 252.192 252.693 252.768 250.581 252.768C249.173 252.768 247.957 252.608 246.933 252.288C245.909 251.968 245.013 251.52 244.245 250.944C243.477 250.368 242.773 249.664 242.133 248.832C241.493 248 240.885 247.104 240.309 246.144L232.245 233.184H227.157ZM233.205 220.416C235.637 220.416 237.557 219.808 238.965 218.592C240.373 217.312 241.077 215.456 241.077 213.024C241.077 210.592 240.277 208.768 238.677 207.552C237.141 206.272 234.677 205.632 231.285 205.632C230.325 205.632 229.557 205.664 228.981 205.728C228.405 205.792 227.765 205.888 227.061 206.016V220.416H233.205ZM280.953 251.616C280.249 251.808 279.129 252 277.593 252.192C276.121 252.384 274.649 252.48 273.177 252.48C271.705 252.48 270.393 252.352 269.241 252.096C268.153 251.904 267.225 251.52 266.457 250.944C265.689 250.368 265.113 249.568 264.729 248.544C264.345 247.52 264.153 246.176 264.153 244.512V193.824C264.857 193.696 265.977 193.536 267.513 193.344C269.049 193.088 270.521 192.96 271.929 192.96C273.401 192.96 274.681 193.088 275.769 193.344C276.921 193.536 277.881 193.92 278.649 194.496C279.417 195.072 279.993 195.872 280.377 196.896C280.761 197.92 280.953 199.264 280.953 200.928V251.616ZM288.603 202.752C288.603 200 289.403 197.824 291.003 196.224C292.603 194.624 294.779 193.824 297.531 193.824H329.211C329.659 194.528 330.043 195.456 330.363 196.608C330.747 197.76 330.939 198.976 330.939 200.256C330.939 202.688 330.395 204.416 329.307 205.44C328.283 206.464 326.907 206.976 325.179 206.976H304.923V215.904H326.523C326.971 216.608 327.355 217.536 327.675 218.688C328.059 219.776 328.251 220.96 328.251 222.24C328.251 224.672 327.739 226.4 326.715 227.424C325.691 228.448 324.315 228.96 322.587 228.96H304.923V239.04H329.595C330.043 239.744 330.427 240.672 330.747 241.824C331.131 242.976 331.323 244.192 331.323 245.472C331.323 247.904 330.779 249.664 329.691 250.752C328.667 251.776 327.291 252.288 325.563 252.288H297.531C294.779 252.288 292.603 251.488 291.003 249.888C289.403 248.288 288.603 246.112 288.603 243.36V202.752ZM389.1 249.984C388.204 250.88 386.892 251.552 385.164 252C383.5 252.512 381.484 252.768 379.116 252.768C376.748 252.768 374.508 252.416 372.396 251.712C370.284 251.008 368.556 249.312 367.212 246.624L357.708 227.232C356.748 225.248 355.884 223.392 355.116 221.664C354.348 219.872 353.516 217.824 352.62 215.52L352.044 215.616C352.3 219.072 352.428 222.592 352.428 226.176C352.492 229.76 352.524 233.28 352.524 236.736V251.616C351.82 251.808 350.732 252 349.26 252.192C347.852 252.384 346.444 252.48 345.036 252.48C343.628 252.48 342.38 252.384 341.292 252.192C340.204 252 339.308 251.616 338.604 251.04C337.9 250.464 337.356 249.696 336.972 248.736C336.588 247.712 336.396 246.4 336.396 244.8V196.8C337.292 195.52 338.668 194.56 340.524 193.92C342.38 193.28 344.364 192.96 346.476 192.96C348.844 192.96 351.084 193.344 353.196 194.112C355.372 194.816 357.1 196.48 358.38 199.104L367.98 218.496C368.94 220.48 369.804 222.368 370.572 224.16C371.34 225.888 372.172 227.904 373.068 230.208L373.548 230.112C373.292 226.656 373.132 223.2 373.068 219.744C373.004 216.288 372.972 212.832 372.972 209.376V193.824C373.676 193.632 374.732 193.44 376.14 193.248C377.612 193.056 379.052 192.96 380.46 192.96C383.276 192.96 385.42 193.472 386.892 194.496C388.364 195.456 389.1 197.504 389.1 200.64V249.984ZM426.417 205.536C421.489 205.536 417.713 207.04 415.089 210.048C412.465 213.056 411.153 217.312 411.153 222.816C411.153 228.384 412.593 232.672 415.473 235.68C418.417 238.688 422.353 240.192 427.281 240.192C429.905 240.192 432.113 239.84 433.905 239.136C435.761 238.432 437.521 237.632 439.185 236.736C440.273 237.632 441.105 238.72 441.681 240C442.321 241.216 442.641 242.656 442.641 244.32C442.641 246.944 441.169 249.184 438.225 251.04C435.345 252.832 430.929 253.728 424.977 253.728C420.689 253.728 416.657 253.12 412.881 251.904C409.105 250.688 405.809 248.832 402.993 246.336C400.177 243.776 397.937 240.576 396.273 236.736C394.673 232.832 393.873 228.192 393.873 222.816C393.873 217.824 394.641 213.44 396.177 209.664C397.777 205.824 399.921 202.592 402.609 199.968C405.361 197.344 408.561 195.36 412.209 194.016C415.857 192.672 419.761 192 423.921 192C429.809 192 434.353 192.96 437.553 194.88C440.817 196.8 442.449 199.264 442.449 202.272C442.449 203.936 442.033 205.376 441.201 206.592C440.369 207.808 439.409 208.768 438.321 209.472C436.657 208.384 434.865 207.456 432.945 206.688C431.089 205.92 428.913 205.536 426.417 205.536ZM446.796 202.752C446.796 200 447.596 197.824 449.196 196.224C450.796 194.624 452.972 193.824 455.724 193.824H487.404C487.852 194.528 488.236 195.456 488.556 196.608C488.94 197.76 489.132 198.976 489.132 200.256C489.132 202.688 488.588 204.416 487.5 205.44C486.476 206.464 485.1 206.976 483.372 206.976H463.116V215.904H484.716C485.164 216.608 485.548 217.536 485.868 218.688C486.252 219.776 486.444 220.96 486.444 222.24C486.444 224.672 485.932 226.4 484.908 227.424C483.884 228.448 482.508 228.96 480.78 228.96H463.116V239.04H487.788C488.236 239.744 488.62 240.672 488.94 241.824C489.324 242.976 489.516 244.192 489.516 245.472C489.516 247.904 488.972 249.664 487.884 250.752C486.86 251.776 485.484 252.288 483.756 252.288H455.724C452.972 252.288 450.796 251.488 449.196 249.888C447.596 248.288 446.796 246.112 446.796 243.36V202.752Z" fill="#0C68B1"/>
</svg>
