<svg width="36" height="36" viewBox="0 0 36 36" fill="none" xmlns="http://www.w3.org/2000/svg">
<path fill-rule="evenodd" clip-rule="evenodd" d="M17.7978 4.65169C14.1724 4.65169 13.7185 4.66682 12.2947 4.73178C10.8735 4.79674 9.90268 5.02277 9.05373 5.35292C8.16384 5.68752 7.35671 6.21255 6.68929 6.89242C6.01051 7.55907 5.48515 8.36563 5.14979 9.25597C4.82142 10.1049 4.5945 11.0767 4.52954 12.4978C4.46547 13.9208 4.44945 14.3737 4.44945 18C4.44945 21.6263 4.46458 22.0792 4.52954 23.5031C4.5945 24.9242 4.82053 25.8951 5.15068 26.744C5.48528 27.6339 6.01031 28.4411 6.69018 29.1085C7.35685 29.7872 8.1634 30.3126 9.05373 30.648C9.90268 30.9772 10.8735 31.2033 12.2947 31.2682C13.7185 31.3332 14.1724 31.3483 17.7978 31.3483C21.4232 31.3483 21.877 31.3332 23.3008 31.2682C24.722 31.2033 25.6928 30.9772 26.5418 30.6471C27.4317 30.3125 28.2388 29.7875 28.9062 29.1076C29.585 28.4409 30.1104 27.6344 30.4457 26.744C30.775 25.8951 31.001 24.9242 31.066 23.5031C31.1309 22.0792 31.1461 21.6254 31.1461 18C31.1461 14.3746 31.1309 13.9208 31.066 12.4969C31.001 11.0758 30.775 10.1049 30.4448 9.25597C30.1097 8.36525 29.5843 7.55835 28.9053 6.89153C28.2387 6.21275 27.4321 5.68739 26.5418 5.35203C25.6928 5.02366 24.7211 4.79674 23.2999 4.73178C21.877 4.66771 21.4241 4.65169 17.7978 4.65169ZM17.7978 7.05705C21.3618 7.05705 21.7845 7.0704 23.1923 7.13447C24.4933 7.1941 25.1998 7.41034 25.6706 7.59455C26.2935 7.83571 26.7385 8.12581 27.2057 8.59211C27.6728 9.0593 27.9621 9.50424 28.2032 10.1272C28.3865 10.5979 28.6037 11.3045 28.6633 12.6055C28.7274 14.0133 28.7407 14.436 28.7407 18C28.7407 21.564 28.7274 21.9867 28.6633 23.3945C28.6037 24.6955 28.3874 25.4021 28.2032 25.8728C27.9896 26.4526 27.6487 26.9772 27.2057 27.4079C26.775 27.851 26.2505 28.1919 25.6706 28.4055C25.1998 28.5888 24.4933 28.8059 23.1923 28.8655C21.7845 28.9296 21.3626 28.9429 17.7978 28.9429C14.2329 28.9429 13.8111 28.9296 12.4033 28.8655C11.1022 28.8059 10.3957 28.5897 9.92493 28.4055C9.34512 28.1918 8.82058 27.8509 8.38987 27.4079C7.94686 26.9771 7.60599 26.4526 7.39231 25.8728C7.20899 25.4021 6.99186 24.6955 6.93223 23.3945C6.86816 21.9867 6.85481 21.564 6.85481 18C6.85481 14.436 6.86816 14.0133 6.93223 12.6055C6.99186 11.3045 7.2081 10.5979 7.39231 10.1272C7.63347 9.50424 7.92357 9.0593 8.38987 8.59211C8.82052 8.14899 9.34508 7.8081 9.92493 7.59455C10.3957 7.41123 11.1022 7.1941 12.4033 7.13447C13.8111 7.0704 14.2338 7.05705 17.7978 7.05705Z" fill="#0B315E"/>
<path fill-rule="evenodd" clip-rule="evenodd" d="M17.7978 22.4539C17.2129 22.4539 16.6337 22.3387 16.0933 22.1148C15.553 21.891 15.062 21.5629 14.6484 21.1494C14.2348 20.7358 13.9067 20.2448 13.6829 19.7044C13.4591 19.1641 13.3439 18.5849 13.3439 18C13.3439 17.4151 13.4591 16.8359 13.6829 16.2956C13.9067 15.7552 14.2348 15.2642 14.6484 14.8506C15.062 14.437 15.553 14.109 16.0933 13.8851C16.6337 13.6613 17.2129 13.5461 17.7978 13.5461C18.979 13.5461 20.1119 14.0154 20.9471 14.8506C21.7824 15.6859 22.2516 16.8187 22.2516 18C22.2516 19.1812 21.7824 20.3141 20.9471 21.1494C20.1119 21.9846 18.979 22.4539 17.7978 22.4539ZM17.7978 11.139C15.9781 11.139 14.233 11.8618 12.9463 13.1485C11.6596 14.4352 10.9367 16.1803 10.9367 18C10.9367 19.8197 11.6596 21.5648 12.9463 22.8515C14.233 24.1382 15.9781 24.861 17.7978 24.861C19.6174 24.861 21.3625 24.1382 22.6492 22.8515C23.9359 21.5648 24.6588 19.8197 24.6588 18C24.6588 16.1803 23.9359 14.4352 22.6492 13.1485C21.3625 11.8618 19.6174 11.139 17.7978 11.139ZM26.6548 11.0144C26.6548 11.4445 26.4839 11.857 26.1798 12.1612C25.8756 12.4653 25.4631 12.6362 25.033 12.6362C24.6028 12.6362 24.1903 12.4653 23.8862 12.1612C23.582 11.857 23.4112 11.4445 23.4112 11.0144C23.4112 10.5842 23.582 10.1717 23.8862 9.86758C24.1903 9.56343 24.6028 9.39256 25.033 9.39256C25.4631 9.39256 25.8756 9.56343 26.1798 9.86758C26.4839 10.1717 26.6548 10.5842 26.6548 11.0144Z" fill="#0B315E"/>
</svg>
