<svg width="638" height="428" viewBox="0 0 638 428" fill="none" xmlns="http://www.w3.org/2000/svg">
<path fill-rule="evenodd" clip-rule="evenodd" d="M45.9135 131.536C42.1242 90.0747 -9.9262 33.1665 25.0464 8.04598C61.5897 -18.2028 129.813 30.0338 182.769 33.233C216.007 35.241 245.358 12.368 277.725 23.3109C311.994 34.897 319.692 81.6505 354.496 91.2918C401.699 104.368 446.684 65.8632 492.708 82.8648C532.319 97.4975 546.524 139.46 568.825 170.467C594.721 206.47 651.047 246.546 635.107 280.843C616.591 320.682 540.835 313.061 494.135 331.172C467.526 341.491 444.216 354.661 417.729 365.147C393.163 374.872 368.181 382.554 342.787 391.09C310.339 401.997 279.903 440.626 246.104 422.837C205.654 401.546 241.755 333.843 199.53 315.689C139.528 289.891 68.2226 358.03 14.26 323.157C-26.1463 297.045 37.7908 252.606 43.9759 215.163C48.5068 187.734 48.5228 160.085 45.9135 131.536Z" fill="url(#paint0_linear_265_692)"/>
<defs>
<linearGradient id="paint0_linear_265_692" x1="403.793" y1="577.576" x2="-273.861" y2="401.354" gradientUnits="userSpaceOnUse">
<stop stop-color="#FFECAE"/>
<stop offset="1" stop-color="#F49B1D"/>
</linearGradient>
</defs>
</svg>
