<svg width="450" height="280" viewBox="0 0 450 280" fill="none" xmlns="http://www.w3.org/2000/svg">
<g filter="url(#filter0_b_265_721)">
<path d="M0 60.7773C0 27.2109 27.2109 0 60.7773 0H389.223C422.789 0 450 27.2109 450 60.7773V219.223C450 252.789 422.789 280 389.223 280H60.7772C27.2109 280 0 252.789 0 219.223V60.7773Z" fill="url(#paint0_linear_265_721)"/>
<path d="M0.476692 60.7773C0.476692 27.4742 27.4742 0.476692 60.7773 0.476692H389.223C422.526 0.476692 449.523 27.4742 449.523 60.7773V219.223C449.523 252.526 422.526 279.523 389.223 279.523H60.7772C27.4742 279.523 0.476692 252.526 0.476692 219.223V60.7773Z" stroke="url(#paint1_linear_265_721)" stroke-width="0.953384"/>
</g>
<defs>
<filter id="filter0_b_265_721" x="-97.2436" y="-97.2436" width="644.487" height="474.487" filterUnits="userSpaceOnUse" color-interpolation-filters="sRGB">
<feFlood flood-opacity="0" result="BackgroundImageFix"/>
<feGaussianBlur in="BackgroundImageFix" stdDeviation="48.6218"/>
<feComposite in2="SourceAlpha" operator="in" result="effect1_backgroundBlur_265_721"/>
<feBlend mode="normal" in="SourceGraphic" in2="effect1_backgroundBlur_265_721" result="shape"/>
</filter>
<linearGradient id="paint0_linear_265_721" x1="225" y1="0" x2="42.4108" y2="277.551" gradientUnits="userSpaceOnUse">
<stop stop-color="#FFF2F2" stop-opacity="0.03"/>
<stop offset="1" stop-color="#FFFAFA" stop-opacity="0.07"/>
</linearGradient>
<linearGradient id="paint1_linear_265_721" x1="480.556" y1="275.498" x2="189.343" y2="24.3693" gradientUnits="userSpaceOnUse">
<stop stop-color="#114A82" stop-opacity="0.72"/>
<stop offset="1" stop-opacity="0"/>
</linearGradient>
</defs>
</svg>
