<svg width="105" height="106" viewBox="0 0 105 106" fill="none" xmlns="http://www.w3.org/2000/svg">
<path d="M22.2373 35.3125C29.4467 35.3125 35.2911 29.4309 35.2911 22.1755C35.2911 14.9202 29.4467 9.03857 22.2373 9.03857C15.0279 9.03857 9.18353 14.9202 9.18353 22.1755C9.18353 29.4309 15.0279 35.3125 22.2373 35.3125Z" fill="#0B315E"/>
<path d="M83.1551 65.9648C90.3645 65.9648 96.2089 60.0832 96.2089 52.8279C96.2089 45.5725 90.3645 39.6909 83.1551 39.6909C75.9456 39.6909 70.1013 45.5725 70.1013 52.8279C70.1013 60.0832 75.9456 65.9648 83.1551 65.9648Z" fill="#0B315E"/>
<path d="M22.2373 96.6177C29.4467 96.6177 35.2911 90.736 35.2911 83.4807C35.2911 76.2254 29.4467 70.3438 22.2373 70.3438C15.0279 70.3438 9.18353 76.2254 9.18353 83.4807C9.18353 90.736 15.0279 96.6177 22.2373 96.6177Z" fill="#0B315E"/>
<path d="M22.2373 73.6282C20.4533 73.6282 18.9739 72.1393 18.9739 70.3439V35.3121C18.9739 33.5167 20.4533 32.0278 22.2373 32.0278C24.0213 32.0278 25.5008 33.5167 25.5008 35.3121C25.5008 44.902 30.1131 49.5438 39.6424 49.5438H70.1012C71.8853 49.5438 73.3647 51.0326 73.3647 52.828C73.3647 54.6234 71.8853 56.1122 70.1012 56.1122H39.6424C33.7247 56.1122 28.9818 54.5796 25.5008 51.6895V70.3439C25.5008 72.1393 24.0213 73.6282 22.2373 73.6282Z" fill="#0B315E"/>
</svg>
