<svg width="96" height="96" viewBox="0 0 96 96" fill="none" xmlns="http://www.w3.org/2000/svg">
<path d="M70.84 8H67.04C65.48 8 64.2 9.28 64.2 10.84C64.2 12.44 65.48 13.72 67.04 13.72H70.84C77.68 13.72 83.24 19.28 83.24 26.08V49.6C81.8 48.84 80.2 48.44 78.48 48.44H63.24C57.48 48.44 52.76 53.12 52.76 58.92V65.16H43.24V58.92C43.24 53.12 38.52 48.44 32.76 48.44H17.52C15.8 48.44 14.2 48.84 12.76 49.6V26.08C12.76 19.28 18.32 13.72 25.16 13.72H28.96C30.52 13.72 31.8 12.44 31.8 10.84C31.8 9.28 30.52 8 28.96 8H25.16C15.16 8 7.03999 16.12 7.03999 26.08V58.92V77.52C7.03999 83.32 11.76 88 17.52 88H32.76C38.52 88 43.24 83.32 43.24 77.52V70.84H52.76V77.52C52.76 83.32 57.48 88 63.24 88H78.48C84.24 88 88.96 83.32 88.96 77.52V58.92V26.08C88.96 16.12 80.84 8 70.84 8Z" fill="#0B315E"/>
</svg>
