<svg width="108" height="109" viewBox="0 0 108 109" fill="none" xmlns="http://www.w3.org/2000/svg">
<path d="M53.8291 9.76758C29.1998 9.76758 9.12975 29.9654 9.12975 54.7517C9.12975 79.5379 29.1998 99.7358 53.8291 99.7358C78.4585 99.7358 98.5285 79.5379 98.5285 54.7517C98.5285 29.9654 78.4585 9.76758 53.8291 9.76758ZM75.1954 44.4053L49.8509 69.9113C49.2251 70.5411 48.3758 70.901 47.4818 70.901C46.5878 70.901 45.7385 70.5411 45.1127 69.9113L32.4628 57.1808C31.1665 55.8763 31.1665 53.7171 32.4628 52.4125C33.7591 51.108 35.9047 51.108 37.2009 52.4125L47.4818 62.7589L70.4573 39.637C71.7536 38.3325 73.8991 38.3325 75.1954 39.637C76.4917 40.9416 76.4917 43.0558 75.1954 44.4053Z" fill="#0B315E"/>
</svg>
