<svg width="106" height="106" viewBox="0 0 106 106" fill="none" xmlns="http://www.w3.org/2000/svg">
<path d="M44.3987 74.9277H27.9074C13.2436 74.9277 9.58856 71.2483 9.58856 56.4866V30.2048C9.58856 15.4431 13.2436 11.7637 27.9074 11.7637H73.7262C88.39 11.7637 92.0451 15.4431 92.0451 30.2048" stroke="#0B315E" stroke-width="6.37772" stroke-linecap="round" stroke-linejoin="round"/>
<path d="M44.3987 94.7272V74.9282" stroke="#0B315E" stroke-width="6.37772" stroke-linecap="round" stroke-linejoin="round"/>
<path d="M9.58856 57.4067H44.3987" stroke="#0B315E" stroke-width="6.37772" stroke-linecap="round" stroke-linejoin="round"/>
<path d="M30.2136 94.7271H44.3987" stroke="#0B315E" stroke-width="6.37772" stroke-linecap="round" stroke-linejoin="round"/>
<path d="M96.6138 56.7494V81.761C96.6138 92.1423 94.0466 94.7267 83.7341 94.7267H68.2871C57.9746 94.7267 55.4073 92.1423 55.4073 81.761V56.7494C55.4073 46.3681 57.9746 43.7837 68.2871 43.7837H83.7341C94.0466 43.7837 96.6138 46.3681 96.6138 56.7494Z" stroke="#0B315E" stroke-width="6.37772" stroke-linecap="round" stroke-linejoin="round"/>
<path d="M75.9215 80.6223H75.9606" stroke="#0B315E" stroke-width="6.37772" stroke-linecap="round" stroke-linejoin="round"/>
</svg>
