<svg width="533" height="357" viewBox="0 0 533 357" fill="none" xmlns="http://www.w3.org/2000/svg">
<path fill-rule="evenodd" clip-rule="evenodd" d="M472.541 161.072C489.263 191.845 545.698 217.537 529.193 249.345C511.948 282.582 446.885 269.32 407.955 285.546C383.522 295.731 370.276 323.813 343.444 326.77C315.036 329.901 293.732 296.409 265.599 301.234C227.443 307.779 208.306 353.49 169.667 356.579C136.411 359.236 112.076 331.753 85.6565 315.616C54.9798 296.877 1.17795 285.733 0.978122 253.539C0.746018 216.145 57.4655 195.289 84.7202 164.768C100.25 147.377 112.459 128.944 127.845 111.467C142.115 95.2573 157.373 80.4844 172.637 64.9037C192.141 44.9955 200.837 4.32665 231.006 6.16679C267.112 8.369 264.193 73.5565 300.508 72.7029C352.111 71.49 380.042 -6.46904 430.396 1.48025C468.101 7.43256 437.425 64.4335 445.66 95.6178C451.692 118.462 461.026 139.882 472.541 161.072Z" fill="url(#paint0_linear_265_713)"/>
<defs>
<linearGradient id="paint0_linear_265_713" x1="66.004" y1="-57.9831" x2="611.14" y2="-153.714" gradientUnits="userSpaceOnUse">
<stop stop-color="#FFECAE"/>
<stop offset="1" stop-color="#F49B1D"/>
</linearGradient>
</defs>
</svg>
