<svg width="486" height="516" viewBox="0 0 486 516" fill="none" xmlns="http://www.w3.org/2000/svg">
<path fill-rule="evenodd" clip-rule="evenodd" d="M126.59 100.16C145.853 68.3518 138.751 0.604762 177.106 0.494037C217.185 0.378317 240.464 70.1955 276.684 99.7269C299.418 118.262 332.557 116.88 349.931 141.402C368.326 167.366 349.055 204.996 368.864 229.834C395.73 263.52 448.349 258.919 472.29 294.826C492.895 325.731 480.822 363.256 480.355 397.053C479.812 436.297 498.898 494.12 469.305 510.625C434.931 529.797 384.73 485.358 341.693 474.391C317.172 468.142 293.5 465.642 268.978 459.576C246.233 453.95 224.275 446.638 201.568 439.729C172.554 430.901 130.287 443.074 115.516 412.883C97.8393 376.753 159.575 346.554 138.965 311.77C109.678 262.34 22.5059 274.752 2.35394 221.892C-12.7355 182.311 56.5984 183.179 80.8741 159.393C98.6572 141.968 113.324 122.064 126.59 100.16Z" fill="url(#paint0_linear_265_714)"/>
<defs>
<linearGradient id="paint0_linear_265_714" x1="146.398" y1="605.403" x2="-25.2273" y2="364.85" gradientUnits="userSpaceOnUse">
<stop stop-color="#BCE0FF"/>
<stop offset="1" stop-color="#71B6F2"/>
</linearGradient>
</defs>
</svg>
