<svg width="36" height="36" viewBox="0 0 36 36" fill="none" xmlns="http://www.w3.org/2000/svg">
<path fill-rule="evenodd" clip-rule="evenodd" d="M29.3545 8.43529C30.6301 8.778 31.6392 9.78708 31.9819 11.0627C32.6102 13.3855 32.6292 18.2024 32.6292 18.2024C32.6292 18.2024 32.6292 23.0383 32.0009 25.342C31.6582 26.6176 30.6491 27.6267 29.3735 27.9694C27.0698 28.5977 17.7977 28.5977 17.7977 28.5977C17.7977 28.5977 8.52569 28.5977 6.22197 27.9694C4.94634 27.6267 3.93727 26.6176 3.59457 25.342C2.96628 23.0193 2.96628 18.2024 2.96628 18.2024C2.96628 18.2024 2.96628 13.3855 3.57553 11.0817C3.91823 9.80611 4.92731 8.79704 6.20293 8.45434C8.50666 7.82604 17.7787 7.80701 17.7787 7.80701C17.7787 7.80701 27.0507 7.80701 29.3545 8.43529ZM22.5194 18.2024L14.8276 22.6575V13.7472L22.5194 18.2024Z" fill="#0B315E"/>
</svg>
